<?xml version="1.0" encoding="UTF-8" standalone="no"?>
<svg
   xmlns:dc="http://purl.org/dc/elements/1.1/"
   xmlns:cc="http://creativecommons.org/ns#"
   xmlns:rdf="http://www.w3.org/1999/02/22-rdf-syntax-ns#"
   xmlns:svg="http://www.w3.org/2000/svg"
   xmlns="http://www.w3.org/2000/svg"
   version="1.1"
   id="Layer_1"
   x="0px"
   y="0px"
   viewBox="0 0 2000 2000"
   style="enable-background:new 0 0 2000 2000;"
   xml:space="preserve"><metadata
   id="metadata19"><rdf:RDF><cc:Work
       rdf:about=""><dc:format>image/svg+xml</dc:format><dc:type
         rdf:resource="http://purl.org/dc/dcmitype/StillImage" /><dc:title></dc:title></cc:Work></rdf:RDF></metadata><defs
   id="defs17" />
<style
   type="text/css"
   id="style2">
	.st0{fill:#2A9D8F;}
	.st1{fill:#FFFFFF;}
</style>
<circle
   class="st0"
   cx="1000"
   cy="1000"
   r="1000"
   id="circle4" />
<g
   id="g12"
   transform="matrix(1.2944885,0,0,1.1788354,-294.48831,-178.92483)">
	<path
   class="st1"
   d="m 1504.797,743.06 h -373.485 c 96.996,-25.33 160.618,-61.674 189.099,-108.086 20.282,-33.025 22.555,-71.317 6.571,-110.758 -10.987,-27.125 -26.879,-47.536 -47.239,-60.666 -19.714,-12.717 -42.553,-18.075 -67.87,-15.919 -48.905,4.157 -104.239,37.44 -151.827,91.302 -30.83,34.91 -56.405,75.914 -75.061,119.718 -18.655,-43.805 -44.231,-84.808 -75.074,-119.718 -47.588,-53.862 -102.922,-87.145 -151.814,-91.302 -25.317,-2.156 -48.156,3.202 -67.87,15.919 -20.36,13.13 -36.253,33.541 -47.239,60.666 -15.983,39.441 -13.711,77.733 6.558,110.758 28.493,46.413 92.103,82.756 189.099,108.086 H 495.203 c -25.666,0 -46.477,20.811 -46.477,46.477 v 85.209 c 0,25.666 20.812,46.477 46.477,46.477 H 921.246 V 747.268 h 157.507 v 173.955 h 426.043 c 25.679,0 46.477,-20.812 46.477,-46.477 v -85.209 c 10e-4,-25.666 -20.797,-46.477 -46.476,-46.477 z M 856.94,694.452 C 771.473,672.789 714.977,642.875 693.546,607.94 c -11.813,-19.262 -12.678,-39.713 -2.698,-64.333 12.187,-30.081 30.753,-44.799 56.651,-44.799 2.027,0 4.105,0.091 6.223,0.271 35.258,3.008 79.193,30.688 117.498,74.054 35.013,39.622 62.344,88.191 78.883,139.51 -24.234,-3.473 -57.866,-9.231 -93.163,-18.191 z m 162.916,18.191 c 16.551,-51.319 43.882,-99.888 78.895,-139.51 38.305,-43.366 82.227,-71.046 117.498,-74.054 2.118,-0.18 4.196,-0.271 6.223,-0.271 25.885,0 44.463,14.718 56.651,44.799 9.967,24.62 9.115,45.07 -2.711,64.333 -21.418,34.936 -77.914,64.849 -163.381,86.512 -35.297,8.96 -68.929,14.718 -93.175,18.191 z"
   id="path6" />
	<path
   class="st1"
   d="m 558.671,972.865 h 362.576 v 580.968 H 605.148 c -25.666,0 -46.477,-20.812 -46.477,-46.478 z"
   id="path8" />
	<path
   class="st1"
   d="m 1441.342,972.865 v 534.491 c 0,25.666 -20.812,46.478 -46.477,46.478 H 1078.754 V 972.865 Z"
   id="path10" />
</g>
</svg>
